<svg width="61" height="16" viewBox="0 0 61 16" fill="none" xmlns="http://www.w3.org/2000/svg">
<path d="M24.8503 13.1392C24.1676 13.1392 23.5577 13.0215 23.0208 12.7862C22.4872 12.5509 22.0646 12.2244 21.753 11.8068C21.4448 11.3859 21.2791 10.8987 21.2559 10.3452H22.8169C22.8368 10.6468 22.9379 10.9086 23.1202 11.1307C23.3058 11.3494 23.5478 11.5185 23.8461 11.6378C24.1444 11.7571 24.4758 11.8168 24.8404 11.8168C25.2414 11.8168 25.5961 11.7472 25.9043 11.608C26.2158 11.4687 26.4595 11.2749 26.6351 11.0263C26.8108 10.7744 26.8986 10.4844 26.8986 10.1562C26.8986 9.81487 26.8108 9.51491 26.6351 9.25639C26.4628 8.99455 26.2092 8.78906 25.8745 8.63991C25.543 8.49077 25.142 8.41619 24.6713 8.41619H23.8113V7.16335H24.6713C25.0492 7.16335 25.3806 7.09541 25.6657 6.95952C25.954 6.82363 26.1794 6.63471 26.3418 6.39276C26.5042 6.14749 26.5854 5.8608 26.5854 5.53267C26.5854 5.2178 26.5141 4.94437 26.3716 4.71236C26.2324 4.47704 26.0336 4.29309 25.775 4.16051C25.5198 4.02794 25.2182 3.96165 24.8702 3.96165C24.5388 3.96165 24.2289 4.02296 23.9405 4.1456C23.6555 4.26491 23.4235 4.43726 23.2445 4.66264C23.0655 4.88471 22.9694 5.15151 22.9561 5.46307H21.4696C21.4862 4.91288 21.6486 4.42898 21.9569 4.01136C22.2684 3.59375 22.6794 3.26728 23.1898 3.03196C23.7002 2.79664 24.267 2.67898 24.8901 2.67898C25.543 2.67898 26.1065 2.80658 26.5804 3.06179C27.0577 3.31368 27.4256 3.65009 27.6841 4.07102C27.946 4.49195 28.0752 4.95265 28.0719 5.45312C28.0752 6.0232 27.9161 6.5071 27.5946 6.90483C27.2765 7.30256 26.8522 7.56937 26.3219 7.70526V7.7848C26.998 7.88755 27.5217 8.15601 27.8929 8.5902C28.2675 9.02438 28.4531 9.56297 28.4498 10.206C28.4531 10.7661 28.2973 11.2682 27.9824 11.7124C27.6709 12.1565 27.245 12.5062 26.7047 12.7614C26.1645 13.0133 25.5463 13.1392 24.8503 13.1392ZM31.0275 13.0945C30.7557 13.0945 30.5221 12.9983 30.3265 12.8061C30.131 12.6106 30.0332 12.3752 30.0332 12.1001C30.0332 11.8284 30.131 11.5964 30.3265 11.4041C30.5221 11.2086 30.7557 11.1108 31.0275 11.1108C31.2993 11.1108 31.533 11.2086 31.7285 11.4041C31.9241 11.5964 32.0218 11.8284 32.0218 12.1001C32.0218 12.2824 31.9754 12.4498 31.8826 12.6023C31.7931 12.7514 31.6738 12.8707 31.5247 12.9602C31.3755 13.0497 31.2098 13.0945 31.0275 13.0945ZM34.0763 13L38.521 4.21023V4.13565H33.3803V2.81818H40.1119V4.1804L35.6822 13H34.0763ZM45.0648 13.1392C44.4417 13.1392 43.8816 13.0199 43.3844 12.7812C42.8906 12.5393 42.4962 12.2079 42.2012 11.7869C41.9062 11.366 41.7488 10.8854 41.7289 10.3452H43.2203C43.2568 10.7827 43.4507 11.1423 43.802 11.424C44.1534 11.7057 44.5743 11.8466 45.0648 11.8466C45.4559 11.8466 45.8023 11.7571 46.1039 11.5781C46.4088 11.3958 46.6474 11.1456 46.8198 10.8274C46.9954 10.5092 47.0833 10.1463 47.0833 9.73864C47.0833 9.32434 46.9938 8.95478 46.8148 8.62997C46.6358 8.30516 46.3889 8.04995 46.074 7.86435C45.7625 7.67874 45.4045 7.58428 45.0002 7.58097C44.6919 7.58097 44.382 7.634 44.0705 7.74006C43.7589 7.84612 43.507 7.98532 43.3148 8.15767L41.9078 7.94886L42.4796 2.81818H48.0776V4.13565H43.7573L43.4341 6.98438H43.4938C43.6926 6.79214 43.9561 6.63139 44.2843 6.50213C44.6157 6.37287 44.9703 6.30824 45.3482 6.30824C45.968 6.30824 46.5198 6.45573 47.0037 6.75071C47.4909 7.04569 47.8738 7.44839 48.1522 7.95881C48.4339 8.46591 48.5731 9.04924 48.5698 9.70881C48.5731 10.3684 48.4239 10.9567 48.1223 11.4737C47.824 11.9908 47.4097 12.3984 46.8794 12.6967C46.3525 12.9917 45.7476 13.1392 45.0648 13.1392ZM55.7003 11.0909V10.554C55.7003 10.1695 55.7798 9.81818 55.9389 9.5C56.1013 9.1785 56.3366 8.92164 56.6449 8.7294C56.9564 8.53385 57.3326 8.43608 57.7734 8.43608C58.2242 8.43608 58.602 8.5322 58.907 8.72443C59.2119 8.91667 59.4422 9.17353 59.598 9.49503C59.7571 9.81652 59.8366 10.1695 59.8366 10.554V11.0909C59.8366 11.4754 59.7571 11.8284 59.598 12.1499C59.4389 12.468 59.2053 12.7249 58.897 12.9205C58.5921 13.1127 58.2176 13.2088 57.7734 13.2088C57.326 13.2088 56.9482 13.1127 56.6399 12.9205C56.3317 12.7249 56.098 12.468 55.9389 12.1499C55.7798 11.8284 55.7003 11.4754 55.7003 11.0909ZM56.8587 10.554V11.0909C56.8587 11.3759 56.9266 11.6345 57.0625 11.8665C57.1984 12.0985 57.4354 12.2145 57.7734 12.2145C58.1082 12.2145 58.3419 12.0985 58.4744 11.8665C58.607 11.6345 58.6733 11.3759 58.6733 11.0909V10.554C58.6733 10.2689 58.6087 10.0104 58.4794 9.77841C58.3535 9.5464 58.1181 9.4304 57.7734 9.4304C57.442 9.4304 57.2067 9.5464 57.0675 9.77841C56.9283 10.0104 56.8587 10.2689 56.8587 10.554ZM50.5795 5.2642V4.72727C50.5795 4.3428 50.6591 3.98982 50.8182 3.66832C50.9806 3.34683 51.2159 3.08996 51.5241 2.89773C51.8357 2.70549 52.2119 2.60938 52.6527 2.60938C53.1035 2.60938 53.4813 2.70549 53.7862 2.89773C54.0911 3.08996 54.3215 3.34683 54.4773 3.66832C54.633 3.98982 54.7109 4.3428 54.7109 4.72727V5.2642C54.7109 5.64867 54.6314 6.00166 54.4723 6.32315C54.3165 6.64134 54.0845 6.8982 53.7763 7.09375C53.4714 7.28598 53.0968 7.3821 52.6527 7.3821C52.2019 7.3821 51.8224 7.28598 51.5142 7.09375C51.2093 6.8982 50.9773 6.64134 50.8182 6.32315C50.6591 6.00166 50.5795 5.64867 50.5795 5.2642ZM51.7429 4.72727V5.2642C51.7429 5.54924 51.8092 5.80776 51.9418 6.03977C52.0777 6.27178 52.3146 6.38778 52.6527 6.38778C52.9841 6.38778 53.2161 6.27178 53.3487 6.03977C53.4846 5.80776 53.5526 5.54924 53.5526 5.2642V4.72727C53.5526 4.44223 53.4879 4.18371 53.3587 3.9517C53.2294 3.7197 52.9941 3.60369 52.6527 3.60369C52.3213 3.60369 52.0859 3.7197 51.9467 3.9517C51.8108 4.18371 51.7429 4.44223 51.7429 4.72727ZM51.0518 13L58.0518 2.81818H59.2401L52.2401 13H51.0518Z" fill="#00B656"/>
<circle cx="8" cy="8" r="8" fill="#00B656"/>
<path d="M10.7986 5.19958C10.5483 4.95387 10.2113 4.81668 9.86053 4.81774L6.81117 4.81303C6.63505 4.81355 6.46629 4.88375 6.34175 5.00829C6.21721 5.13283 6.14701 5.30159 6.14649 5.47771C6.14613 5.56572 6.1632 5.65293 6.19671 5.7343C6.23022 5.81568 6.27951 5.88962 6.34174 5.95185C6.40398 6.01408 6.47791 6.06337 6.55929 6.09689C6.64067 6.1304 6.72788 6.14747 6.81588 6.1471L8.91301 6.14239L5.19896 9.85644C5.07394 9.98146 5.0037 10.151 5.0037 10.3278C5.0037 10.5047 5.07394 10.6742 5.19896 10.7992C5.32399 10.9243 5.49356 10.9945 5.67037 10.9945C5.84718 10.9945 6.01675 10.9243 6.14177 10.7992L9.85582 7.0852L9.85582 9.18704C9.85519 9.36395 9.92487 9.53386 10.0495 9.6594C10.1742 9.78493 10.3436 9.85581 10.5205 9.85644C10.6974 9.85706 10.8673 9.78738 10.9929 9.66273C11.1184 9.53808 11.1893 9.36867 11.1899 9.19176L11.1852 6.14239C11.1862 5.78934 11.0472 5.45028 10.7986 5.19958Z" fill="white"/>
</svg>
