<svg width="66" height="16" viewBox="0 0 66 16" fill="none" xmlns="http://www.w3.org/2000/svg">
<path d="M25.2603 2.81818V13H23.7191V4.35938H23.6594L21.2234 5.95028V4.47869L23.7638 2.81818H25.2603ZM31.8775 2.81818V13H30.3363V4.35938H30.2766L27.8406 5.95028V4.47869L30.381 2.81818H31.8775ZM35.0431 13.0945C34.7714 13.0945 34.5377 12.9983 34.3422 12.8061C34.1466 12.6106 34.0488 12.3752 34.0488 12.1001C34.0488 11.8284 34.1466 11.5964 34.3422 11.4041C34.5377 11.2086 34.7714 11.1108 35.0431 11.1108C35.3149 11.1108 35.5486 11.2086 35.7441 11.4041C35.9397 11.5964 36.0375 11.8284 36.0375 12.1001C36.0375 12.2824 35.9911 12.4498 35.8983 12.6023C35.8088 12.7514 35.6895 12.8707 35.5403 12.9602C35.3912 13.0497 35.2254 13.0945 35.0431 13.0945ZM41.1942 13.1392C40.7402 13.1326 40.2927 13.0497 39.8519 12.8906C39.4144 12.7315 39.0167 12.4664 38.6587 12.0952C38.3008 11.724 38.0141 11.2251 37.7987 10.5987C37.5865 9.9723 37.4805 9.1901 37.4805 8.25213C37.4805 7.36387 37.5683 6.57505 37.744 5.88565C37.9229 5.19626 38.1798 4.61458 38.5146 4.14062C38.8493 3.66335 39.2537 3.30043 39.7276 3.05185C40.2016 2.80327 40.7335 2.67898 41.3235 2.67898C41.93 2.67898 42.4686 2.7983 42.9393 3.03693C43.4099 3.27557 43.7911 3.60535 44.0827 4.02628C44.3777 4.44721 44.565 4.92614 44.6445 5.46307H43.1282C43.0255 5.03883 42.8216 4.69247 42.5167 4.42401C42.2118 4.15554 41.814 4.02131 41.3235 4.02131C40.5778 4.02131 39.9961 4.34612 39.5785 4.99574C39.1642 5.64536 38.9554 6.54853 38.9521 7.70526H39.0266C39.2023 7.4169 39.4177 7.17164 39.6729 6.96946C39.9315 6.76397 40.2198 6.60653 40.538 6.49716C40.8595 6.38447 41.1976 6.32812 41.5522 6.32812C42.1422 6.32812 42.6758 6.4723 43.1531 6.76065C43.6336 7.04569 44.0165 7.4401 44.3015 7.94389C44.5865 8.44768 44.729 9.02438 44.729 9.67401C44.729 10.3236 44.5816 10.9119 44.2866 11.4389C43.9949 11.9659 43.5839 12.3835 43.0536 12.6918C42.5233 12.9967 41.9035 13.1458 41.1942 13.1392ZM41.1893 11.8466C41.5804 11.8466 41.93 11.7505 42.2383 11.5582C42.5465 11.366 42.7901 11.1075 42.9691 10.7827C43.1481 10.4579 43.2376 10.0949 43.2376 9.69389C43.2376 9.30279 43.1497 8.9465 42.9741 8.625C42.8017 8.3035 42.5631 8.0483 42.2582 7.85938C41.9566 7.67045 41.6119 7.57599 41.2241 7.57599C40.9291 7.57599 40.6557 7.63234 40.4038 7.74503C40.1552 7.85772 39.9364 8.01349 39.7475 8.21236C39.5586 8.41122 39.4094 8.63991 39.3001 8.89844C39.194 9.15365 39.141 9.42377 39.141 9.70881C39.141 10.09 39.2288 10.4429 39.4045 10.7678C39.5835 11.0926 39.8271 11.3544 40.1353 11.5533C40.4469 11.7488 40.7982 11.8466 41.1893 11.8466ZM49.9803 13.1392C49.2677 13.1392 48.638 13.0166 48.0911 12.7713C47.5475 12.526 47.1216 12.188 46.8134 11.7571C46.5051 11.3262 46.3527 10.8357 46.356 10.2855C46.3527 9.85464 46.4405 9.45857 46.6195 9.0973C46.8018 8.73272 47.0487 8.42945 47.3603 8.1875C47.6718 7.94223 48.0198 7.78646 48.4043 7.72017V7.66051C47.8972 7.53788 47.4912 7.2661 47.1863 6.84517C46.8813 6.42424 46.7305 5.94034 46.7338 5.39347C46.7305 4.87311 46.8681 4.40909 47.1465 4.00142C47.4282 3.59044 47.8143 3.26728 48.3049 3.03196C48.7954 2.79664 49.3539 2.67898 49.9803 2.67898C50.6001 2.67898 51.1536 2.7983 51.6408 3.03693C52.1313 3.27225 52.5175 3.59541 52.7992 4.00639C53.0809 4.41406 53.2234 4.87642 53.2267 5.39347C53.2234 5.94034 53.0676 6.42424 52.7594 6.84517C52.4512 7.2661 52.0501 7.53788 51.5563 7.66051V7.72017C51.9374 7.78646 52.2805 7.94223 52.5854 8.1875C52.8936 8.42945 53.1389 8.73272 53.3212 9.0973C53.5068 9.45857 53.6013 9.85464 53.6046 10.2855C53.6013 10.8357 53.4455 11.3262 53.1373 11.7571C52.829 12.188 52.4015 12.526 51.8546 12.7713C51.311 13.0166 50.6863 13.1392 49.9803 13.1392ZM49.9803 11.8814C50.4012 11.8814 50.7658 11.8118 51.074 11.6726C51.3823 11.5301 51.6209 11.3329 51.79 11.081C51.959 10.8258 52.0452 10.5275 52.0485 10.1861C52.0452 9.83144 51.9524 9.51823 51.7701 9.24645C51.5911 8.97467 51.3475 8.76089 51.0392 8.60511C50.731 8.44934 50.378 8.37145 49.9803 8.37145C49.5792 8.37145 49.223 8.44934 48.9114 8.60511C48.5998 8.76089 48.3546 8.97467 48.1756 9.24645C47.9966 9.51823 47.9088 9.83144 47.9121 10.1861C47.9088 10.5275 47.99 10.8258 48.1557 11.081C48.3248 11.3329 48.565 11.5301 48.8766 11.6726C49.1882 11.8118 49.556 11.8814 49.9803 11.8814ZM49.9803 7.14347C50.3184 7.14347 50.6183 7.07552 50.8801 6.93963C51.142 6.80374 51.3475 6.61482 51.4966 6.37287C51.6491 6.13092 51.727 5.84754 51.7303 5.52273C51.727 5.20455 51.6507 4.92614 51.5016 4.6875C51.3558 4.44886 51.1519 4.26491 50.8901 4.13565C50.6283 4.00308 50.325 3.93679 49.9803 3.93679C49.629 3.93679 49.3207 4.00308 49.0556 4.13565C48.7937 4.26491 48.5899 4.44886 48.4441 4.6875C48.2982 4.92614 48.227 5.20455 48.2303 5.52273C48.227 5.84754 48.2999 6.13092 48.449 6.37287C48.5982 6.61482 48.8037 6.80374 49.0655 6.93963C49.3307 7.07552 49.6356 7.14347 49.9803 7.14347ZM60.7003 11.0909V10.554C60.7003 10.1695 60.7798 9.81818 60.9389 9.5C61.1013 9.1785 61.3366 8.92164 61.6449 8.7294C61.9564 8.53385 62.3326 8.43608 62.7734 8.43608C63.2242 8.43608 63.602 8.5322 63.907 8.72443C64.2119 8.91667 64.4422 9.17353 64.598 9.49503C64.7571 9.81652 64.8366 10.1695 64.8366 10.554V11.0909C64.8366 11.4754 64.7571 11.8284 64.598 12.1499C64.4389 12.468 64.2053 12.7249 63.897 12.9205C63.5921 13.1127 63.2176 13.2088 62.7734 13.2088C62.326 13.2088 61.9482 13.1127 61.6399 12.9205C61.3317 12.7249 61.098 12.468 60.9389 12.1499C60.7798 11.8284 60.7003 11.4754 60.7003 11.0909ZM61.8587 10.554V11.0909C61.8587 11.3759 61.9266 11.6345 62.0625 11.8665C62.1984 12.0985 62.4354 12.2145 62.7734 12.2145C63.1082 12.2145 63.3419 12.0985 63.4744 11.8665C63.607 11.6345 63.6733 11.3759 63.6733 11.0909V10.554C63.6733 10.2689 63.6087 10.0104 63.4794 9.77841C63.3535 9.5464 63.1181 9.4304 62.7734 9.4304C62.442 9.4304 62.2067 9.5464 62.0675 9.77841C61.9283 10.0104 61.8587 10.2689 61.8587 10.554ZM55.5795 5.2642V4.72727C55.5795 4.3428 55.6591 3.98982 55.8182 3.66832C55.9806 3.34683 56.2159 3.08996 56.5241 2.89773C56.8357 2.70549 57.2119 2.60938 57.6527 2.60938C58.1035 2.60938 58.4813 2.70549 58.7862 2.89773C59.0911 3.08996 59.3215 3.34683 59.4773 3.66832C59.633 3.98982 59.7109 4.3428 59.7109 4.72727V5.2642C59.7109 5.64867 59.6314 6.00166 59.4723 6.32315C59.3165 6.64134 59.0845 6.8982 58.7763 7.09375C58.4714 7.28598 58.0968 7.3821 57.6527 7.3821C57.2019 7.3821 56.8224 7.28598 56.5142 7.09375C56.2093 6.8982 55.9773 6.64134 55.8182 6.32315C55.6591 6.00166 55.5795 5.64867 55.5795 5.2642ZM56.7429 4.72727V5.2642C56.7429 5.54924 56.8092 5.80776 56.9418 6.03977C57.0777 6.27178 57.3146 6.38778 57.6527 6.38778C57.9841 6.38778 58.2161 6.27178 58.3487 6.03977C58.4846 5.80776 58.5526 5.54924 58.5526 5.2642V4.72727C58.5526 4.44223 58.4879 4.18371 58.3587 3.9517C58.2294 3.7197 57.9941 3.60369 57.6527 3.60369C57.3213 3.60369 57.0859 3.7197 56.9467 3.9517C56.8108 4.18371 56.7429 4.44223 56.7429 4.72727ZM56.0518 13L63.0518 2.81818H64.2401L57.2401 13H56.0518Z" fill="#00B656"/>
<circle cx="8" cy="8" r="8" fill="#00B656"/>
<path d="M10.7986 5.19958C10.5483 4.95387 10.2113 4.81668 9.86053 4.81774L6.81117 4.81303C6.63505 4.81355 6.46629 4.88375 6.34175 5.00829C6.21721 5.13283 6.14701 5.30159 6.14649 5.47771C6.14613 5.56572 6.1632 5.65293 6.19671 5.7343C6.23022 5.81568 6.27951 5.88962 6.34174 5.95185C6.40398 6.01408 6.47791 6.06337 6.55929 6.09689C6.64067 6.1304 6.72788 6.14747 6.81588 6.1471L8.91301 6.14239L5.19896 9.85644C5.07394 9.98146 5.0037 10.151 5.0037 10.3278C5.0037 10.5047 5.07394 10.6742 5.19896 10.7992C5.32399 10.9243 5.49356 10.9945 5.67037 10.9945C5.84718 10.9945 6.01675 10.9243 6.14177 10.7992L9.85582 7.0852L9.85582 9.18704C9.85519 9.36395 9.92487 9.53386 10.0495 9.6594C10.1742 9.78493 10.3436 9.85581 10.5205 9.85644C10.6974 9.85706 10.8673 9.78738 10.9929 9.66273C11.1184 9.53808 11.1893 9.36867 11.1899 9.19176L11.1852 6.14239C11.1862 5.78934 11.0472 5.45028 10.7986 5.19958Z" fill="white"/>
</svg>
