<svg width="51" height="16" viewBox="0 0 51 16" fill="none" xmlns="http://www.w3.org/2000/svg">
<path d="M24.8423 2.81818V13H23.3011V4.35938H23.2415L20.8054 5.95028V4.47869L23.3459 2.81818H24.8423ZM28.008 13.0945C27.7362 13.0945 27.5025 12.9983 27.307 12.8061C27.1114 12.6106 27.0137 12.3752 27.0137 12.1001C27.0137 11.8284 27.1114 11.5964 27.307 11.4041C27.5025 11.2086 27.7362 11.1108 28.008 11.1108C28.2798 11.1108 28.5134 11.2086 28.709 11.4041C28.9045 11.5964 29.0023 11.8284 29.0023 12.1001C29.0023 12.2824 28.9559 12.4498 28.8631 12.6023C28.7736 12.7514 28.6543 12.8707 28.5051 12.9602C28.356 13.0497 28.1903 13.0945 28.008 13.0945ZM34.1703 13.1392C33.5472 13.1392 32.987 13.0199 32.4899 12.7812C31.996 12.5393 31.6016 12.2079 31.3066 11.7869C31.0117 11.366 30.8542 10.8854 30.8343 10.3452H32.3258C32.3623 10.7827 32.5562 11.1423 32.9075 11.424C33.2588 11.7057 33.6797 11.8466 34.1703 11.8466C34.5614 11.8466 34.9077 11.7571 35.2093 11.5781C35.5143 11.3958 35.7529 11.1456 35.9252 10.8274C36.1009 10.5092 36.1887 10.1463 36.1887 9.73864C36.1887 9.32434 36.0993 8.95478 35.9203 8.62997C35.7413 8.30516 35.4944 8.04995 35.1795 7.86435C34.868 7.67874 34.51 7.58428 34.1056 7.58097C33.7974 7.58097 33.4875 7.634 33.176 7.74006C32.8644 7.84612 32.6125 7.98532 32.4203 8.15767L31.0133 7.94886L31.585 2.81818H37.1831V4.13565H32.8627L32.5396 6.98438H32.5993C32.7981 6.79214 33.0616 6.63139 33.3897 6.50213C33.7212 6.37287 34.0758 6.30824 34.4537 6.30824C35.0734 6.30824 35.6253 6.45573 36.1092 6.75071C36.5964 7.04569 36.9792 7.44839 37.2576 7.95881C37.5394 8.46591 37.6786 9.04924 37.6752 9.70881C37.6786 10.3684 37.5294 10.9567 37.2278 11.4737C36.9295 11.9908 36.5152 12.3984 35.9849 12.6967C35.4579 12.9917 34.853 13.1392 34.1703 13.1392ZM44.8058 11.0909V10.554C44.8058 10.1695 44.8853 9.81818 45.0444 9.5C45.2068 9.1785 45.4421 8.92164 45.7504 8.7294C46.0619 8.53385 46.4381 8.43608 46.8789 8.43608C47.3297 8.43608 47.7075 8.5322 48.0124 8.72443C48.3174 8.91667 48.5477 9.17353 48.7035 9.49503C48.8626 9.81652 48.9421 10.1695 48.9421 10.554V11.0909C48.9421 11.4754 48.8626 11.8284 48.7035 12.1499C48.5444 12.468 48.3107 12.7249 48.0025 12.9205C47.6976 13.1127 47.323 13.2088 46.8789 13.2088C46.4315 13.2088 46.0536 13.1127 45.7454 12.9205C45.4371 12.7249 45.2035 12.468 45.0444 12.1499C44.8853 11.8284 44.8058 11.4754 44.8058 11.0909ZM45.9641 10.554V11.0909C45.9641 11.3759 46.0321 11.6345 46.168 11.8665C46.3039 12.0985 46.5408 12.2145 46.8789 12.2145C47.2137 12.2145 47.4473 12.0985 47.5799 11.8665C47.7125 11.6345 47.7788 11.3759 47.7788 11.0909V10.554C47.7788 10.2689 47.7141 10.0104 47.5849 9.77841C47.4589 9.5464 47.2236 9.4304 46.8789 9.4304C46.5475 9.4304 46.3121 9.5464 46.1729 9.77841C46.0337 10.0104 45.9641 10.2689 45.9641 10.554ZM39.685 5.2642V4.72727C39.685 4.3428 39.7646 3.98982 39.9237 3.66832C40.0861 3.34683 40.3214 3.08996 40.6296 2.89773C40.9412 2.70549 41.3174 2.60938 41.7582 2.60938C42.2089 2.60938 42.5868 2.70549 42.8917 2.89773C43.1966 3.08996 43.427 3.34683 43.5827 3.66832C43.7385 3.98982 43.8164 4.3428 43.8164 4.72727V5.2642C43.8164 5.64867 43.7369 6.00166 43.5778 6.32315C43.422 6.64134 43.19 6.8982 42.8817 7.09375C42.5768 7.28598 42.2023 7.3821 41.7582 7.3821C41.3074 7.3821 40.9279 7.28598 40.6197 7.09375C40.3147 6.8982 40.0827 6.64134 39.9237 6.32315C39.7646 6.00166 39.685 5.64867 39.685 5.2642ZM40.8484 4.72727V5.2642C40.8484 5.54924 40.9147 5.80776 41.0472 6.03977C41.1831 6.27178 41.4201 6.38778 41.7582 6.38778C42.0896 6.38778 42.3216 6.27178 42.4542 6.03977C42.5901 5.80776 42.658 5.54924 42.658 5.2642V4.72727C42.658 4.44223 42.5934 4.18371 42.4641 3.9517C42.3349 3.7197 42.0996 3.60369 41.7582 3.60369C41.4267 3.60369 41.1914 3.7197 41.0522 3.9517C40.9163 4.18371 40.8484 4.44223 40.8484 4.72727ZM40.1573 13L47.1573 2.81818H48.3455L41.3455 13H40.1573Z" fill="#EA4242"/>
<circle cx="8" cy="8" r="8" fill="#EA4242"/>
<path d="M10.8034 10.7992C11.0491 10.5489 11.1863 10.2118 11.1852 9.86108L11.19 6.81172C11.1894 6.63559 11.1192 6.46683 10.9947 6.3423C10.8702 6.21776 10.7014 6.14756 10.5253 6.14704C10.4373 6.14668 10.3501 6.16374 10.2687 6.19726C10.1873 6.23077 10.1134 6.28006 10.0511 6.34229C9.98891 6.40453 9.93962 6.47846 9.90611 6.55984C9.87259 6.64122 9.85552 6.72842 9.85589 6.81643L9.8606 8.91356L6.14655 5.19951C6.02153 5.07449 5.85196 5.00425 5.67515 5.00425C5.49834 5.00425 5.32877 5.07449 5.20375 5.19951C5.07872 5.32454 5.00848 5.49411 5.00848 5.67092C5.00848 5.84773 5.07872 6.0173 5.20375 6.14232L8.91779 9.85637L6.81595 9.85637C6.63904 9.85574 6.46913 9.92542 6.34359 10.0501C6.21806 10.1747 6.14718 10.3441 6.14655 10.521C6.14593 10.698 6.21561 10.8679 6.34026 10.9934C6.46491 11.1189 6.63433 11.1898 6.81123 11.1904L9.8606 11.1857C10.2137 11.1868 10.5527 11.0478 10.8034 10.7992Z" fill="white"/>
</svg>
