<svg width="57" height="16" viewBox="0 0 57 16" fill="none" xmlns="http://www.w3.org/2000/svg">
<path d="M24.8423 2.81818V13H23.3011V4.35938H23.2415L20.8054 5.95028V4.47869L23.3459 2.81818H24.8423ZM31.1413 13.169C30.3558 13.1657 29.6847 12.9586 29.1278 12.5476C28.571 12.1366 28.1451 11.5384 27.8501 10.7528C27.5552 9.96733 27.4077 9.02107 27.4077 7.91406C27.4077 6.81037 27.5552 5.86742 27.8501 5.08523C28.1484 4.30303 28.576 3.70644 29.1328 3.29545C29.6929 2.88447 30.3625 2.67898 31.1413 2.67898C31.9202 2.67898 32.5881 2.88613 33.1449 3.30043C33.7017 3.71141 34.1276 4.308 34.4226 5.0902C34.7209 5.86908 34.87 6.81037 34.87 7.91406C34.87 9.02438 34.7225 9.9723 34.4276 10.7578C34.1326 11.54 33.7067 12.1383 33.1499 12.5526C32.593 12.9635 31.9235 13.169 31.1413 13.169ZM31.1413 11.8416C31.8307 11.8416 32.3693 11.5052 32.7571 10.8324C33.1482 10.1596 33.3438 9.18679 33.3438 7.91406C33.3438 7.06889 33.2543 6.35464 33.0753 5.77131C32.8996 5.18466 32.6461 4.74053 32.3146 4.43892C31.9865 4.134 31.5954 3.98153 31.1413 3.98153C30.4553 3.98153 29.9167 4.3196 29.5256 4.99574C29.1345 5.67187 28.9373 6.64465 28.9339 7.91406C28.9339 8.76255 29.0218 9.48011 29.1974 10.0668C29.3764 10.6501 29.63 11.0926 29.9581 11.3942C30.2862 11.6925 30.6806 11.8416 31.1413 11.8416ZM40.1784 13.169C39.3929 13.1657 38.7218 12.9586 38.165 12.5476C37.6081 12.1366 37.1822 11.5384 36.8873 10.7528C36.5923 9.96733 36.4448 9.02107 36.4448 7.91406C36.4448 6.81037 36.5923 5.86742 36.8873 5.08523C37.1855 4.30303 37.6131 3.70644 38.1699 3.29545C38.7301 2.88447 39.3996 2.67898 40.1784 2.67898C40.9573 2.67898 41.6252 2.88613 42.182 3.30043C42.7388 3.71141 43.1647 4.308 43.4597 5.0902C43.758 5.86908 43.9071 6.81037 43.9071 7.91406C43.9071 9.02438 43.7596 9.9723 43.4647 10.7578C43.1697 11.54 42.7438 12.1383 42.187 12.5526C41.6301 12.9635 40.9606 13.169 40.1784 13.169ZM40.1784 11.8416C40.8678 11.8416 41.4064 11.5052 41.7942 10.8324C42.1853 10.1596 42.3809 9.18679 42.3809 7.91406C42.3809 7.06889 42.2914 6.35464 42.1124 5.77131C41.9367 5.18466 41.6832 4.74053 41.3517 4.43892C41.0236 4.134 40.6325 3.98153 40.1784 3.98153C39.4924 3.98153 38.9538 4.3196 38.5627 4.99574C38.1716 5.67187 37.9744 6.64465 37.9711 7.91406C37.9711 8.76255 38.0589 9.48011 38.2346 10.0668C38.4135 10.6501 38.6671 11.0926 38.9952 11.3942C39.3233 11.6925 39.7177 11.8416 40.1784 11.8416ZM50.9854 11.0909V10.554C50.9854 10.1695 51.065 9.81818 51.2241 9.5C51.3865 9.1785 51.6218 8.92164 51.93 8.7294C52.2416 8.53385 52.6178 8.43608 53.0586 8.43608C53.5094 8.43608 53.8872 8.5322 54.1921 8.72443C54.497 8.91667 54.7274 9.17353 54.8832 9.49503C55.0423 9.81652 55.1218 10.1695 55.1218 10.554V11.0909C55.1218 11.4754 55.0423 11.8284 54.8832 12.1499C54.7241 12.468 54.4904 12.7249 54.1822 12.9205C53.8772 13.1127 53.5027 13.2088 53.0586 13.2088C52.6112 13.2088 52.2333 13.1127 51.9251 12.9205C51.6168 12.7249 51.3832 12.468 51.2241 12.1499C51.065 11.8284 50.9854 11.4754 50.9854 11.0909ZM52.1438 10.554V11.0909C52.1438 11.3759 52.2118 11.6345 52.3477 11.8665C52.4835 12.0985 52.7205 12.2145 53.0586 12.2145C53.3933 12.2145 53.627 12.0985 53.7596 11.8665C53.8922 11.6345 53.9585 11.3759 53.9585 11.0909V10.554C53.9585 10.2689 53.8938 10.0104 53.7646 9.77841C53.6386 9.5464 53.4033 9.4304 53.0586 9.4304C52.7272 9.4304 52.4918 9.5464 52.3526 9.77841C52.2134 10.0104 52.1438 10.2689 52.1438 10.554ZM45.8647 5.2642V4.72727C45.8647 4.3428 45.9442 3.98982 46.1033 3.66832C46.2657 3.34683 46.5011 3.08996 46.8093 2.89773C47.1209 2.70549 47.497 2.60938 47.9379 2.60938C48.3886 2.60938 48.7665 2.70549 49.0714 2.89773C49.3763 3.08996 49.6067 3.34683 49.7624 3.66832C49.9182 3.98982 49.9961 4.3428 49.9961 4.72727V5.2642C49.9961 5.64867 49.9165 6.00166 49.7575 6.32315C49.6017 6.64134 49.3697 6.8982 49.0614 7.09375C48.7565 7.28598 48.382 7.3821 47.9379 7.3821C47.4871 7.3821 47.1076 7.28598 46.7994 7.09375C46.4944 6.8982 46.2624 6.64134 46.1033 6.32315C45.9442 6.00166 45.8647 5.64867 45.8647 5.2642ZM47.0281 4.72727V5.2642C47.0281 5.54924 47.0943 5.80776 47.2269 6.03977C47.3628 6.27178 47.5998 6.38778 47.9379 6.38778C48.2693 6.38778 48.5013 6.27178 48.6339 6.03977C48.7698 5.80776 48.8377 5.54924 48.8377 5.2642V4.72727C48.8377 4.44223 48.7731 4.18371 48.6438 3.9517C48.5146 3.7197 48.2792 3.60369 47.9379 3.60369C47.6064 3.60369 47.3711 3.7197 47.2319 3.9517C47.096 4.18371 47.0281 4.44223 47.0281 4.72727ZM46.337 13L53.337 2.81818H54.5252L47.5252 13H46.337Z" fill="#00B656"/>
<circle cx="8" cy="8" r="8" fill="#00B656"/>
<path d="M10.7988 5.19952C10.5484 4.95381 10.2114 4.81662 9.86066 4.81768L6.81129 4.81297C6.63517 4.81349 6.46641 4.88369 6.34187 5.00823C6.21733 5.13277 6.14713 5.30153 6.14661 5.47765C6.14625 5.56566 6.16332 5.65286 6.19683 5.73424C6.23034 5.81562 6.27964 5.88956 6.34187 5.95179C6.4041 6.01402 6.47803 6.06331 6.55941 6.09682C6.64079 6.13034 6.728 6.1474 6.816 6.14704L8.91313 6.14233L5.19909 9.85638C5.07406 9.9814 5.00382 10.151 5.00382 10.3278C5.00382 10.5046 5.07406 10.6742 5.19909 10.7992C5.32411 10.9242 5.49368 10.9944 5.67049 10.9944C5.8473 10.9944 6.01687 10.9242 6.1419 10.7992L9.85594 7.08514L9.85594 9.18698C9.85532 9.36389 9.92499 9.5338 10.0496 9.65934C10.1743 9.78487 10.3437 9.85575 10.5206 9.85638C10.6975 9.857 10.8674 9.78732 10.993 9.66267C11.1185 9.53802 11.1894 9.3686 11.19 9.19169L11.1853 6.14233C11.1864 5.78928 11.0473 5.45022 10.7988 5.19952Z" fill="white"/>
</svg>
