<svg width="196" height="196" viewBox="0 0 196 196" fill="none" xmlns="http://www.w3.org/2000/svg">
<path d="M62.875 95.4375C61.2292 95.4271 59.6406 95.151 58.1094 94.6094C56.5885 94.0677 55.224 93.1875 54.0156 91.9687C52.8073 90.75 51.849 89.1354 51.1406 87.125C50.4427 85.1146 50.0938 82.6458 50.0938 79.7187C50.1042 77.0312 50.4115 74.6302 51.0156 72.5156C51.6302 70.3906 52.5052 68.5885 53.6406 67.1094C54.7865 65.6302 56.1563 64.5052 57.75 63.7344C59.3438 62.9531 61.1302 62.5625 63.1094 62.5625C65.2448 62.5625 67.1302 62.9792 68.7656 63.8125C70.401 64.6354 71.7135 65.7552 72.7031 67.1719C73.7031 68.5885 74.3073 70.1771 74.5156 71.9375H67.8438C67.5833 70.8229 67.0365 69.9479 66.2031 69.3125C65.3698 68.6771 64.3385 68.3594 63.1094 68.3594C61.026 68.3594 59.4427 69.2656 58.3594 71.0781C57.2865 72.8906 56.7396 75.3542 56.7188 78.4687H56.9375C57.4167 77.5208 58.0625 76.7135 58.875 76.0469C59.6979 75.3698 60.6302 74.8542 61.6719 74.5C62.724 74.1354 63.8333 73.9531 65 73.9531C66.8958 73.9531 68.5833 74.401 70.0625 75.2969C71.5417 76.1823 72.7083 77.401 73.5625 78.9531C74.4167 80.5052 74.8438 82.2812 74.8438 84.2812C74.8438 86.4479 74.3385 88.375 73.3281 90.0625C72.3281 91.75 70.9271 93.0729 69.125 94.0312C67.3333 94.9792 65.25 95.4479 62.875 95.4375ZM62.8438 90.125C63.8854 90.125 64.8177 89.875 65.6406 89.375C66.4635 88.875 67.1094 88.1979 67.5781 87.3437C68.0469 86.4896 68.2812 85.5312 68.2812 84.4687C68.2812 83.4062 68.0469 82.4531 67.5781 81.6094C67.1198 80.7656 66.4844 80.0937 65.6719 79.5937C64.8594 79.0937 63.9323 78.8438 62.8906 78.8438C62.1094 78.8438 61.3854 78.9896 60.7188 79.2812C60.0625 79.5729 59.4844 79.9792 58.9844 80.5C58.4948 81.0208 58.1094 81.625 57.8281 82.3125C57.5469 82.9896 57.4063 83.7135 57.4063 84.4844C57.4063 85.5156 57.6406 86.4583 58.1094 87.3125C58.5885 88.1667 59.2344 88.849 60.0469 89.3594C60.8698 89.8698 61.8021 90.125 62.8438 90.125ZM91.2188 62.5625C92.8646 62.5625 94.4479 62.8385 95.9688 63.3906C97.5 63.9427 98.8646 64.8229 100.062 66.0312C101.271 67.2396 102.224 68.8437 102.922 70.8437C103.63 72.8333 103.99 75.276 104 78.1719C104 80.8906 103.693 83.3177 103.078 85.4531C102.474 87.5781 101.604 89.3854 100.469 90.875C99.3333 92.3646 97.9635 93.5 96.3594 94.2812C94.7552 95.0521 92.9635 95.4375 90.9844 95.4375C88.849 95.4375 86.9635 95.026 85.3281 94.2031C83.6927 93.3698 82.375 92.2396 81.375 90.8125C80.3854 89.375 79.7865 87.7604 79.5781 85.9687H86.25C86.5104 87.1354 87.0573 88.0417 87.8906 88.6875C88.724 89.3229 89.7552 89.6406 90.9844 89.6406C93.0677 89.6406 94.651 88.7344 95.7344 86.9219C96.8177 85.099 97.3646 82.6042 97.375 79.4375H97.1562C96.6771 80.375 96.0313 81.1823 95.2188 81.8594C94.4063 82.526 93.474 83.0417 92.4219 83.4063C91.3802 83.7708 90.2708 83.9531 89.0938 83.9531C87.2083 83.9531 85.526 83.5104 84.0469 82.625C82.5677 81.7396 81.401 80.5208 80.5469 78.9687C79.6927 77.4167 79.2656 75.6458 79.2656 73.6562C79.2552 71.5104 79.75 69.599 80.75 67.9219C81.75 66.2448 83.1458 64.9323 84.9375 63.9844C86.7396 63.026 88.8333 62.5521 91.2188 62.5625ZM91.2656 67.875C90.2135 67.875 89.276 68.125 88.4531 68.625C87.6406 69.125 86.9948 69.7969 86.5156 70.6406C86.0469 71.4844 85.8177 72.4271 85.8281 73.4687C85.8281 74.5208 86.0573 75.4687 86.5156 76.3125C86.9844 77.1458 87.6198 77.8125 88.4219 78.3125C89.2344 78.8021 90.1615 79.0469 91.2031 79.0469C91.9844 79.0469 92.7083 78.901 93.375 78.6094C94.0417 78.3177 94.6198 77.9167 95.1094 77.4062C95.6094 76.8854 96 76.2865 96.2813 75.6094C96.5625 74.9323 96.7031 74.2135 96.7031 73.4531C96.6927 72.4427 96.4531 71.5156 95.9844 70.6719C95.5156 69.8281 94.8698 69.151 94.0469 68.6406C93.224 68.1302 92.2969 67.875 91.2656 67.875ZM126.203 89V87.3125C126.203 86.0312 126.474 84.8542 127.016 83.7812C127.568 82.6979 128.365 81.8333 129.406 81.1875C130.458 80.5312 131.74 80.2031 133.25 80.2031C134.781 80.2031 136.068 80.526 137.109 81.1719C138.161 81.8177 138.953 82.6823 139.484 83.7656C140.026 84.8385 140.297 86.0208 140.297 87.3125V89C140.297 90.2812 140.026 91.4635 139.484 92.5469C138.943 93.6198 138.146 94.4792 137.094 95.125C136.042 95.7813 134.76 96.1094 133.25 96.1094C131.719 96.1094 130.432 95.7813 129.391 95.125C128.349 94.4792 127.557 93.6198 127.016 92.5469C126.474 91.4635 126.203 90.2812 126.203 89ZM130.75 87.3125V89C130.75 89.7396 130.927 90.4375 131.281 91.0937C131.646 91.75 132.302 92.0781 133.25 92.0781C134.198 92.0781 134.844 91.7552 135.188 91.1094C135.542 90.4635 135.719 89.7604 135.719 89V87.3125C135.719 86.5521 135.552 85.8437 135.219 85.1875C134.885 84.5312 134.229 84.2031 133.25 84.2031C132.313 84.2031 131.661 84.5312 131.297 85.1875C130.932 85.8437 130.75 86.5521 130.75 87.3125ZM109.781 70.6875V69C109.781 67.7083 110.057 66.526 110.609 65.4531C111.161 64.3698 111.958 63.5052 113 62.8594C114.052 62.2135 115.323 61.8906 116.813 61.8906C118.354 61.8906 119.646 62.2135 120.688 62.8594C121.729 63.5052 122.521 64.3698 123.062 65.4531C123.604 66.526 123.875 67.7083 123.875 69V70.6875C123.875 71.9792 123.599 73.1615 123.047 74.2344C122.505 75.3073 121.708 76.1667 120.656 76.8125C119.615 77.4479 118.333 77.7656 116.813 77.7656C115.292 77.7656 114.005 77.4427 112.953 76.7969C111.911 76.1406 111.12 75.2812 110.578 74.2187C110.047 73.1458 109.781 71.9687 109.781 70.6875ZM114.359 69V70.6875C114.359 71.4479 114.536 72.151 114.891 72.7969C115.255 73.4427 115.896 73.7656 116.813 73.7656C117.771 73.7656 118.422 73.4427 118.766 72.7969C119.12 72.151 119.297 71.4479 119.297 70.6875V69C119.297 68.2396 119.13 67.5313 118.797 66.875C118.464 66.2187 117.802 65.8906 116.813 65.8906C115.885 65.8906 115.245 66.224 114.891 66.8906C114.536 67.5573 114.359 68.2604 114.359 69ZM111.844 95L133.844 63H137.938L115.938 95H111.844Z" fill="#1C1C1C"/>
<path d="M62.3388 122V110.364H66.2706C67.1797 110.364 67.9259 110.519 68.5092 110.83C69.0926 111.136 69.5244 111.559 69.8047 112.097C70.085 112.634 70.2251 113.246 70.2251 113.932C70.2251 114.617 70.085 115.225 69.8047 115.756C69.5244 116.286 69.0945 116.703 68.5149 117.006C67.9354 117.305 67.1948 117.455 66.2933 117.455H63.1115V116.182H66.2479C66.8691 116.182 67.3691 116.091 67.7479 115.909C68.1304 115.727 68.407 115.47 68.5774 115.136C68.7517 114.799 68.8388 114.398 68.8388 113.932C68.8388 113.466 68.7517 113.059 68.5774 112.71C68.4032 112.362 68.1248 112.093 67.7422 111.903C67.3596 111.71 66.8539 111.614 66.2251 111.614H63.7479V122H62.3388ZM67.8161 116.773L70.6797 122H69.0433L66.2251 116.773H67.8161ZM75.9567 122.182C75.1158 122.182 74.3904 121.996 73.7805 121.625C73.1745 121.25 72.7067 120.727 72.3771 120.057C72.0514 119.383 71.8885 118.598 71.8885 117.705C71.8885 116.811 72.0514 116.023 72.3771 115.341C72.7067 114.655 73.165 114.121 73.7521 113.739C74.343 113.352 75.0324 113.159 75.8203 113.159C76.2749 113.159 76.7237 113.235 77.1669 113.386C77.6101 113.538 78.0135 113.784 78.3771 114.125C78.7408 114.462 79.0305 114.909 79.2464 115.466C79.4624 116.023 79.5703 116.708 79.5703 117.523V118.091H72.843V116.932H78.2067C78.2067 116.439 78.1082 116 77.9112 115.614C77.718 115.227 77.4415 114.922 77.0817 114.699C76.7256 114.475 76.3052 114.364 75.8203 114.364C75.2862 114.364 74.8241 114.496 74.4339 114.761C74.0476 115.023 73.7502 115.364 73.5419 115.784C73.3336 116.205 73.2294 116.655 73.2294 117.136V117.909C73.2294 118.568 73.343 119.127 73.5703 119.585C73.8014 120.04 74.1214 120.386 74.5305 120.625C74.9396 120.86 75.415 120.977 75.9567 120.977C76.3089 120.977 76.6271 120.928 76.9112 120.83C77.1991 120.727 77.4472 120.576 77.6555 120.375C77.8639 120.17 78.0249 119.917 78.1385 119.614L79.4339 119.977C79.2976 120.417 79.0684 120.803 78.7464 121.136C78.4245 121.466 78.0268 121.723 77.5533 121.909C77.0798 122.091 76.5476 122.182 75.9567 122.182ZM87.7919 115.227L86.5874 115.568C86.5116 115.367 86.3999 115.172 86.2521 114.983C86.1082 114.79 85.9112 114.631 85.6612 114.506C85.4112 114.381 85.0911 114.318 84.701 114.318C84.1669 114.318 83.7218 114.441 83.3658 114.688C83.0135 114.93 82.8374 115.239 82.8374 115.614C82.8374 115.947 82.9586 116.21 83.201 116.403C83.4434 116.597 83.8222 116.758 84.3374 116.886L85.6328 117.205C86.4131 117.394 86.9946 117.684 87.3771 118.074C87.7597 118.46 87.951 118.958 87.951 119.568C87.951 120.068 87.8071 120.515 87.5192 120.909C87.2351 121.303 86.8374 121.614 86.326 121.841C85.8146 122.068 85.2199 122.182 84.5419 122.182C83.6518 122.182 82.915 121.989 82.3317 121.602C81.7483 121.216 81.379 120.652 81.2237 119.909L82.4964 119.591C82.6177 120.061 82.8468 120.413 83.1839 120.648C83.5249 120.883 83.9699 121 84.5192 121C85.1442 121 85.6404 120.867 86.0078 120.602C86.379 120.333 86.5646 120.011 86.5646 119.636C86.5646 119.333 86.4586 119.08 86.2464 118.875C86.0343 118.667 85.7086 118.511 85.2692 118.409L83.8146 118.068C83.0154 117.879 82.4283 117.585 82.0533 117.188C81.6821 116.786 81.4964 116.284 81.4964 115.682C81.4964 115.189 81.6347 114.754 81.9112 114.375C82.1915 113.996 82.5722 113.699 83.0533 113.483C83.5381 113.267 84.0874 113.159 84.701 113.159C85.5646 113.159 86.2427 113.348 86.7351 113.727C87.2313 114.106 87.5836 114.606 87.7919 115.227ZM89.9695 125.273V113.273H91.2649V114.659H91.424C91.5225 114.508 91.6589 114.314 91.8331 114.08C92.0111 113.841 92.2649 113.629 92.5945 113.443C92.9278 113.254 93.3786 113.159 93.9467 113.159C94.6816 113.159 95.3293 113.343 95.8899 113.71C96.4505 114.078 96.888 114.598 97.2024 115.273C97.5168 115.947 97.674 116.742 97.674 117.659C97.674 118.583 97.5168 119.384 97.2024 120.062C96.888 120.737 96.4524 121.259 95.8956 121.631C95.3388 121.998 94.6967 122.182 93.9695 122.182C93.4089 122.182 92.96 122.089 92.6229 121.903C92.2857 121.714 92.0263 121.5 91.8445 121.261C91.6626 121.019 91.5225 120.818 91.424 120.659H91.3104V125.273H89.9695ZM91.2876 117.636C91.2876 118.295 91.3842 118.877 91.5774 119.381C91.7706 119.881 92.0528 120.273 92.424 120.557C92.7952 120.837 93.2498 120.977 93.7876 120.977C94.3482 120.977 94.8161 120.83 95.1911 120.534C95.5698 120.235 95.8539 119.833 96.0433 119.33C96.2365 118.822 96.3331 118.258 96.3331 117.636C96.3331 117.023 96.2384 116.47 96.049 115.977C95.8634 115.481 95.5812 115.089 95.2024 114.801C94.8274 114.509 94.3558 114.364 93.7876 114.364C93.2422 114.364 92.7839 114.502 92.4126 114.778C92.0414 115.051 91.7611 115.434 91.5717 115.926C91.3823 116.415 91.2876 116.985 91.2876 117.636ZM103.265 122.182C102.477 122.182 101.786 121.994 101.191 121.619C100.6 121.244 100.138 120.72 99.8047 120.045C99.4751 119.371 99.3104 118.583 99.3104 117.682C99.3104 116.773 99.4751 115.979 99.8047 115.301C100.138 114.623 100.6 114.097 101.191 113.722C101.786 113.347 102.477 113.159 103.265 113.159C104.053 113.159 104.742 113.347 105.333 113.722C105.928 114.097 106.39 114.623 106.719 115.301C107.053 115.979 107.219 116.773 107.219 117.682C107.219 118.583 107.053 119.371 106.719 120.045C106.39 120.72 105.928 121.244 105.333 121.619C104.742 121.994 104.053 122.182 103.265 122.182ZM103.265 120.977C103.863 120.977 104.356 120.824 104.742 120.517C105.129 120.21 105.415 119.807 105.6 119.307C105.786 118.807 105.879 118.265 105.879 117.682C105.879 117.098 105.786 116.555 105.6 116.051C105.415 115.547 105.129 115.14 104.742 114.83C104.356 114.519 103.863 114.364 103.265 114.364C102.666 114.364 102.174 114.519 101.788 114.83C101.401 115.14 101.115 115.547 100.93 116.051C100.744 116.555 100.651 117.098 100.651 117.682C100.651 118.265 100.744 118.807 100.93 119.307C101.115 119.807 101.401 120.21 101.788 120.517C102.174 120.824 102.666 120.977 103.265 120.977ZM110.607 116.75V122H109.266V113.273H110.562V114.636H110.675C110.88 114.193 111.191 113.837 111.607 113.568C112.024 113.295 112.562 113.159 113.221 113.159C113.812 113.159 114.329 113.28 114.772 113.523C115.215 113.761 115.56 114.125 115.806 114.614C116.052 115.098 116.175 115.712 116.175 116.455V122H114.835V116.545C114.835 115.86 114.656 115.326 114.3 114.943C113.944 114.557 113.456 114.364 112.835 114.364C112.406 114.364 112.024 114.456 111.687 114.642C111.353 114.828 111.09 115.098 110.897 115.455C110.704 115.811 110.607 116.242 110.607 116.75ZM124.808 115.227L123.603 115.568C123.527 115.367 123.415 115.172 123.268 114.983C123.124 114.79 122.927 114.631 122.677 114.506C122.427 114.381 122.107 114.318 121.717 114.318C121.183 114.318 120.737 114.441 120.381 114.688C120.029 114.93 119.853 115.239 119.853 115.614C119.853 115.947 119.974 116.21 120.217 116.403C120.459 116.597 120.838 116.758 121.353 116.886L122.648 117.205C123.429 117.394 124.01 117.684 124.393 118.074C124.775 118.46 124.967 118.958 124.967 119.568C124.967 120.068 124.823 120.515 124.535 120.909C124.251 121.303 123.853 121.614 123.342 121.841C122.83 122.068 122.236 122.182 121.558 122.182C120.667 122.182 119.931 121.989 119.347 121.602C118.764 121.216 118.395 120.652 118.239 119.909L119.512 119.591C119.633 120.061 119.862 120.413 120.2 120.648C120.54 120.883 120.986 121 121.535 121C122.16 121 122.656 120.867 123.023 120.602C123.395 120.333 123.58 120.011 123.58 119.636C123.58 119.333 123.474 119.08 123.262 118.875C123.05 118.667 122.724 118.511 122.285 118.409L120.83 118.068C120.031 117.879 119.444 117.585 119.069 117.188C118.698 116.786 118.512 116.284 118.512 115.682C118.512 115.189 118.65 114.754 118.927 114.375C119.207 113.996 119.588 113.699 120.069 113.483C120.554 113.267 121.103 113.159 121.717 113.159C122.58 113.159 123.258 113.348 123.751 113.727C124.247 114.106 124.599 114.606 124.808 115.227ZM130.644 122.182C129.803 122.182 129.078 121.996 128.468 121.625C127.862 121.25 127.394 120.727 127.065 120.057C126.739 119.383 126.576 118.598 126.576 117.705C126.576 116.811 126.739 116.023 127.065 115.341C127.394 114.655 127.853 114.121 128.44 113.739C129.031 113.352 129.72 113.159 130.508 113.159C130.962 113.159 131.411 113.235 131.854 113.386C132.298 113.538 132.701 113.784 133.065 114.125C133.428 114.462 133.718 114.909 133.934 115.466C134.15 116.023 134.258 116.708 134.258 117.523V118.091H127.531V116.932H132.894C132.894 116.439 132.796 116 132.599 115.614C132.406 115.227 132.129 114.922 131.769 114.699C131.413 114.475 130.993 114.364 130.508 114.364C129.974 114.364 129.512 114.496 129.121 114.761C128.735 115.023 128.438 115.364 128.229 115.784C128.021 116.205 127.917 116.655 127.917 117.136V117.909C127.917 118.568 128.031 119.127 128.258 119.585C128.489 120.04 128.809 120.386 129.218 120.625C129.627 120.86 130.103 120.977 130.644 120.977C130.996 120.977 131.315 120.928 131.599 120.83C131.887 120.727 132.135 120.576 132.343 120.375C132.551 120.17 132.712 119.917 132.826 119.614L134.121 119.977C133.985 120.417 133.756 120.803 133.434 121.136C133.112 121.466 132.714 121.723 132.241 121.909C131.767 122.091 131.235 122.182 130.644 122.182ZM82.2685 141V129.364H86.2003C87.1094 129.364 87.8556 129.519 88.4389 129.83C89.0223 130.136 89.4541 130.559 89.7344 131.097C90.0147 131.634 90.1548 132.246 90.1548 132.932C90.1548 133.617 90.0147 134.225 89.7344 134.756C89.4541 135.286 89.0241 135.703 88.4446 136.006C87.8651 136.305 87.1245 136.455 86.223 136.455H83.0412V135.182H86.1776C86.7988 135.182 87.2988 135.091 87.6776 134.909C88.0601 134.727 88.3366 134.47 88.5071 134.136C88.6813 133.799 88.7685 133.398 88.7685 132.932C88.7685 132.466 88.6813 132.059 88.5071 131.71C88.3329 131.362 88.0545 131.093 87.6719 130.903C87.2893 130.71 86.7836 130.614 86.1548 130.614H83.6776V141H82.2685ZM87.7457 135.773L90.6094 141H88.973L86.1548 135.773H87.7457ZM94.8892 141.205C94.3362 141.205 93.8343 141.1 93.3835 140.892C92.9328 140.68 92.5748 140.375 92.3097 139.977C92.0445 139.576 91.9119 139.091 91.9119 138.523C91.9119 138.023 92.0104 137.617 92.2074 137.307C92.4044 136.992 92.6676 136.746 92.9972 136.568C93.3267 136.39 93.6903 136.258 94.0881 136.17C94.4896 136.08 94.893 136.008 95.2983 135.955C95.8286 135.886 96.2585 135.835 96.5881 135.801C96.9214 135.763 97.1638 135.701 97.3153 135.614C97.4706 135.527 97.5483 135.375 97.5483 135.159V135.114C97.5483 134.553 97.3949 134.117 97.0881 133.807C96.785 133.496 96.3248 133.341 95.7074 133.341C95.0672 133.341 94.5653 133.481 94.2017 133.761C93.8381 134.042 93.5824 134.341 93.4347 134.659L92.1619 134.205C92.3892 133.674 92.6922 133.261 93.071 132.966C93.4536 132.667 93.8703 132.458 94.321 132.341C94.7756 132.22 95.2225 132.159 95.6619 132.159C95.9422 132.159 96.2642 132.193 96.6278 132.261C96.9953 132.326 97.3494 132.46 97.6903 132.665C98.035 132.869 98.321 133.178 98.5483 133.591C98.7756 134.004 98.8892 134.557 98.8892 135.25V141H97.5483V139.818H97.4801C97.3892 140.008 97.2377 140.21 97.0256 140.426C96.8134 140.642 96.5313 140.826 96.179 140.977C95.8267 141.129 95.3968 141.205 94.8892 141.205ZM95.0938 140C95.6241 140 96.071 139.896 96.4347 139.688C96.8021 139.479 97.0786 139.21 97.2642 138.881C97.4536 138.551 97.5483 138.205 97.5483 137.841V136.614C97.4915 136.682 97.3665 136.744 97.1733 136.801C96.9839 136.854 96.7642 136.902 96.5142 136.943C96.268 136.981 96.0275 137.015 95.7926 137.045C95.5616 137.072 95.3741 137.095 95.2301 137.114C94.8816 137.159 94.5559 137.233 94.2528 137.335C93.9536 137.434 93.7112 137.583 93.5256 137.784C93.3438 137.981 93.2528 138.25 93.2528 138.591C93.2528 139.057 93.4252 139.409 93.7699 139.648C94.1184 139.883 94.5597 140 95.0938 140ZM105.132 132.273V133.409H100.609V132.273H105.132ZM101.928 130.182H103.268V138.5C103.268 138.879 103.323 139.163 103.433 139.352C103.547 139.538 103.691 139.663 103.865 139.727C104.043 139.788 104.231 139.818 104.428 139.818C104.575 139.818 104.696 139.811 104.791 139.795C104.886 139.777 104.962 139.761 105.018 139.75L105.291 140.955C105.2 140.989 105.073 141.023 104.911 141.057C104.748 141.095 104.541 141.114 104.291 141.114C103.912 141.114 103.541 141.032 103.178 140.869C102.818 140.706 102.518 140.458 102.28 140.125C102.045 139.792 101.928 139.371 101.928 138.864V130.182ZM110.714 141.182C109.874 141.182 109.148 140.996 108.538 140.625C107.932 140.25 107.464 139.727 107.135 139.057C106.809 138.383 106.646 137.598 106.646 136.705C106.646 135.811 106.809 135.023 107.135 134.341C107.464 133.655 107.923 133.121 108.51 132.739C109.101 132.352 109.79 132.159 110.578 132.159C111.033 132.159 111.482 132.235 111.925 132.386C112.368 132.538 112.771 132.784 113.135 133.125C113.499 133.462 113.788 133.909 114.004 134.466C114.22 135.023 114.328 135.708 114.328 136.523V137.091H107.601V135.932H112.964C112.964 135.439 112.866 135 112.669 134.614C112.476 134.227 112.199 133.922 111.839 133.699C111.483 133.475 111.063 133.364 110.578 133.364C110.044 133.364 109.582 133.496 109.192 133.761C108.805 134.023 108.508 134.364 108.3 134.784C108.091 135.205 107.987 135.655 107.987 136.136V136.909C107.987 137.568 108.101 138.127 108.328 138.585C108.559 139.04 108.879 139.386 109.288 139.625C109.697 139.86 110.173 139.977 110.714 139.977C111.067 139.977 111.385 139.928 111.669 139.83C111.957 139.727 112.205 139.576 112.413 139.375C112.622 139.17 112.783 138.917 112.896 138.614L114.192 138.977C114.055 139.417 113.826 139.803 113.504 140.136C113.182 140.466 112.785 140.723 112.311 140.909C111.838 141.091 111.305 141.182 110.714 141.182Z" fill="#1C1C1C"/>
<path d="M98.0001 0C119.557 9.52173e-05 140.513 7.10819 157.622 20.2234C174.731 33.3386 187.038 51.7291 192.637 72.5465C198.236 93.364 196.815 115.447 188.593 135.375C180.372 155.303 165.809 171.964 147.16 182.778C128.512 193.592 106.818 197.955 85.4382 195.191C64.0588 192.428 44.1871 182.692 28.9008 167.492L47.6157 148.671C58.762 159.754 73.2517 166.854 88.8409 168.869C104.43 170.884 120.249 167.702 133.847 159.818C147.445 151.933 158.064 139.784 164.06 125.253C170.055 110.722 171.091 94.6199 167.009 79.4402C162.926 64.2604 153.952 50.8503 141.476 41.2871C129 31.7239 113.719 26.5411 98.0001 26.5417V0Z" fill="#882EFD"/>
<path d="M28.8997 167.492C15.1387 153.809 5.75008 136.348 1.92381 117.323C-1.90246 98.2975 0.005888 78.5646 7.40698 60.6252C14.808 42.6858 27.3686 27.3476 43.4966 16.5546C59.6246 5.76172 78.5938 7.28006e-05 98 0V26.5417C83.8501 26.5414 70.0187 30.7421 58.2588 38.6112C46.4989 46.4803 37.3399 57.6636 31.9428 70.7437C26.5452 83.8251 25.1532 98.2146 27.9432 112.088C30.7332 125.962 37.5797 138.694 47.6146 148.672L28.8997 167.492Z" fill="#E6E8EA"/>
</svg>
